<?xml version="1.0" encoding="utf-8"?>
<!-- Generator: Adobe Illustrator 22.0.1, SVG Export Plug-In . SVG Version: 6.00 Build 0)  -->
<svg version="1.1" id="Capa_1" xmlns="http://www.w3.org/2000/svg" xmlns:xlink="http://www.w3.org/1999/xlink" x="0px" y="0px"
	 viewBox="0 0 841.9 595.3" style="enable-background:new 0 0 841.9 595.3;" xml:space="preserve">
<style type="text/css">
	.st0{fill:#C6CF84;}
	.st1{fill:#9D9D9C;}
	.st2{fill:#EDEDED;}
	.st3{fill:#DADADA;}
	.st4{fill:#F6F6F6;}
	.st5{fill:#706F6F;}
	.st6{fill:#575656;}
	.st7{fill:#C6C6C6;}
	.st8{fill:#E5E4E4;}
</style>
<rect class="st0" width="841.9" height="595.3"/>
<g>
	<polygon class="st1" points="509.8,340.6 321,361.1 306.2,337.4 476.2,300.1 	"/>
	<path class="st2" d="M546.5,323.4c0,0-3.3,16.1-45.8,17.8c-39.6,1.6-49.5-15.8-49.5-15.8l-0.1-1.8l-4.1-76.4
		c0.9,2.3,4.3,4.4,9.5,6.2c8.9,3,23.1,4.9,39,4.9c27,0,48.8-5.5,48.8-12.2L546.5,323.4z"/>
	<path class="st3" d="M478.6,257.5l-9.7,79.9c-13.7-4.7-17.8-12-17.8-12l-0.1-1.7l-4.1-76.4c0.9,2.3,4.3,4.4,9.5,6.2
		C462.1,255.2,469.8,256.7,478.6,257.5z"/>
	<path class="st4" d="M544.4,246c0,6.8-21.9,12.2-48.8,12.2c-16,0-30.1-1.9-39-4.9c-5.2-1.7-8.7-3.9-9.5-6.2
		c-0.2-0.4-0.2-0.8-0.2-1.2c0-2.9,4.1-5.6,10.9-7.7c0,0,0,0,0,0c9-2.8,22.6-4.5,37.9-4.5C522.5,233.8,544.2,239.3,544.4,246
		C544.4,246,544.4,246,544.4,246z"/>
	<path class="st5" d="M511.8,245.2L511.8,245.2c0,1-1.8,2-4.7,2.6c-2.9,0.7-6.8,1.1-11.2,1.1c-4.4,0-8.3-0.4-11.2-1.1
		c-2.5-0.6-4.2-1.4-4.6-2.3c0-0.1-0.1-0.2-0.1-0.3c0-2,7.1-3.7,15.9-3.7C504.7,241.5,511.8,243.2,511.8,245.2z"/>
	<path class="st6" d="M507.2,247.7L507.2,247.7c0,0.1,0,0.1,0,0.2c-2.9,0.7-6.8,1.1-11.2,1.1c-4.4,0-8.3-0.4-11.2-1.1
		c0,0,0-0.1,0-0.1c0-1.4,5-2.6,11.2-2.6C502.1,245.1,507.1,246.3,507.2,247.7z"/>
	<path class="st2" d="M422.8,286.5c0.2-0.1,0.5-0.3,0.7-0.4c-12.7,23.7-26.2,48.2-38.7,63.7c-0.4,0.5-0.8,1-1,1.5
		c-9.2,2.2-23.7,4.9-31.5,4.7c-6.9-0.2-9.5-2-27.1,4.3c-4.1,1.5-16.2,1.2-16.2,1.2s-14.4-25.4-13.5-32.1c7.5,3.3,37.1-6.6,37.1-6.6
		s37.7-12.1,66.2-45.3c12.1-14.1,24.1-23.1,34.1-29C425.9,266.5,417.7,289.5,422.8,286.5z"/>
	<path class="st2" d="M422.8,286.5c0.2-0.1,0.5-0.3,0.7-0.4c-12.7,23.7-26.2,48.2-38.7,63.6c-0.4,0.5-0.8,1-1,1.5
		c-9.2,2.2-23.7,4.9-31.5,4.7c-6.9-0.2-9.5-2-27.1,4.2c-0.4,0.1-0.8,0.2-1.2,0.3l-6.9-33.4c8.2-2,15.5-4.5,15.5-4.5
		s37.7-12.1,66.2-45.3c12.1-14.1,24.1-23.1,34.1-29C425.9,266.5,417.7,289.5,422.8,286.5z"/>
	<path class="st4" d="M429.8,333.6c-14.2,6.4-32,14-42.5,16.8c-1,0.3-2.2,0.6-3.5,0.9c0.2-0.5,0.5-1,1-1.5
		c12.5-15.5,26-40,38.7-63.7c7.6-3.8,10,7.6,10.3,11.4C434.4,304.9,432,320.9,429.8,333.6z"/>
	<path class="st2" d="M447,247.2l4.1,76.4c0,0-9.3,4.5-21.3,9.9c2.2-12.7,4.6-28.7,3.9-36.1c-0.3-3.8-2.7-15.2-10.3-11.4
		c-0.2,0.1-0.4,0.2-0.7,0.4c-5.1,3,3.1-20,10.1-38.1c5.8-3.4,10.9-5.7,15-7.2c5.8-2.2,9.5-2.8,9.8-2.9c-6.8,2.1-10.9,4.8-10.9,7.7
		C446.8,246.4,446.9,246.8,447,247.2z"/>
	<path class="st3" d="M447,247.2l4.1,76.4c0,0-2.9,1.4-7.6,3.6l-3.9-82.4c3.1-1.5,5.9-2.7,8.3-3.6c5.8-2.2,9.5-2.8,9.8-2.9
		c-6.8,2.1-10.9,4.8-10.9,7.7C446.8,246.4,446.9,246.8,447,247.2z"/>
	<path class="st7" d="M447,247.2l4.1,76.4c0,0-2.9,1.4-7.6,3.6l-13.1-77.3c3.4-2.9,15-7.8,17.5-8.7c5.8-2.2,9.5-2.8,9.8-2.9
		c-6.8,2.1-10.9,4.8-10.9,7.7C446.8,246.4,446.9,246.8,447,247.2z"/>
	<path class="st8" d="M323.6,360.7c-5,1-14.6,0.7-14.6,0.7s-14.4-25.4-13.5-32.1C298.1,330.5,323.6,360.7,323.6,360.7z"/>
</g>
</svg>
